Coordinates
version=1
nRows=16
nColumns=22
inDegrees=yes

Units are S.I. units (second, meters, Newtons, ...)
If the header above contains a line with 'inDegrees', this indicates whether rotational values are in degrees (yes) or radians (no).

endheader
time	pelvis_tilt	pelvis_list	pelvis_rotation	pelvis_tx	pelvis_ty	pelvis_tz	hip_flexion_r	hip_adduction_r	hip_rotation_r	knee_angle_r	ankle_angle_r	subtalar_angle_r	hip_flexion_l	hip_adduction_l	hip_rotation_l	knee_angle_l	ankle_angle_l	subtalar_angle_l	lumbar_extension	lumbar_bending	lumbar_rotation
      0.01000000	     -0.71811638	      0.23628592	    -11.09242512	     -0.82619059	      0.89381297	     -0.43962551	     27.21891181	     -1.98402768	     -1.88736774	    -45.53545040	     17.31185914	    -10.36980001	     -3.88839060	      3.14627742	     -4.44693858	    -14.77067172	     21.38862731	     -5.43276247	    -11.90682437	     -1.13211069	     -1.96267021
      0.02000000	     -0.75335168	      0.09427236	    -10.99995301	     -0.82339929	      0.89342967	     -0.43925265	     27.35024819	     -1.89568602	     -2.24280836	    -44.57078986	     17.34048376	    -10.34806303	     -4.06053114	      2.98380583	     -4.34887873	    -14.80609237	     21.54968239	     -5.36034736	    -11.99869596	     -0.94134608	     -1.99889088
      0.03000000	     -0.73839948	     -0.07589462	    -10.89321743	     -0.82000089	      0.89303562	     -0.43878262	     27.42103822	     -1.82126202	     -2.71669940	    -43.40709227	     17.32638923	    -10.24470955	     -4.36140541	      2.80116898	     -4.25907708	    -14.78929290	     21.75308125	     -5.30771884	    -12.16128170	     -0.72139944	     -2.03764863
      0.04000000	     -0.74669964	     -0.25692794	    -10.78013881	     -0.81624543	      0.89251806	     -0.43817044	     27.50426481	     -1.71180303	     -3.17754136	    -42.06418013	     17.30611654	    -10.08685169	     -4.64029904	      2.59610361	     -4.13739177	    -14.82513558	     21.97061995	     -5.27865748	    -12.31610649	     -0.48861394	     -2.06106268
      0.05000000	     -0.68950273	     -0.44263535	    -10.67011600	     -0.81209110	      0.89201768	     -0.43744971	     27.49833839	     -1.62721832	     -3.70886148	    -40.60212431	     17.24654928	     -9.72211928	     -5.05526661	      2.40132262	     -4.00570247	    -14.79037746	     22.19032782	     -5.21576973	    -12.54158057	     -0.26142007	     -2.06349722
      0.06000000	     -0.68284624	     -0.62868150	    -10.54974981	     -0.80774419	      0.89135400	     -0.43660261	     27.53141457	     -1.52231427	     -4.24533020	    -39.05742238	     17.14866645	     -9.36023727	     -5.39824196	      2.18248999	     -3.88827139	    -14.81868850	     22.45976118	     -5.15997090	    -12.70976125	     -0.02742642	     -2.07644421
      0.07000000	     -0.71684382	     -0.80975055	    -10.42595386	     -0.80328333	      0.89055202	     -0.43565604	     27.59527474	     -1.39830232	     -4.75104241	    -37.46371241	     17.00687050	     -9.06497841	     -5.66549434	      1.94907734	     -3.79450363	    -14.92413433	     22.74813611	     -5.11736003	    -12.83372378	      0.20953484	     -2.08165972
      0.08000000	     -0.66188914	     -0.97443494	    -10.32286335	     -0.79861103	      0.88981999	     -0.43459082	     27.55067817	     -1.30164118	     -5.24429670	    -35.85849881	     16.87198586	     -8.39698025	     -6.09438066	      1.75522134	     -3.65807438	    -14.92885284	     22.98223055	     -4.99810468	    -13.04466723	      0.40713570	     -2.05945127
      0.09000000	     -0.65793518	     -1.13070266	    -10.21243366	     -0.79388276	      0.88893880	     -0.43340719	     27.55980702	     -1.18880061	     -5.70307893	    -34.27040379	     16.71263708	     -7.83466785	     -6.43030980	      1.54308373	     -3.55174284	    -15.01285609	     23.25860794	     -4.89586615	    -13.19438111	      0.59817338	     -2.05059866
      0.10000000	     -0.65226993	     -1.27629108	    -10.10069212	     -0.78905895	      0.88799365	     -0.43212919	     27.56755479	     -1.07801927	     -6.11985495	    -32.72038078	     16.56215652	     -7.32279009	     -6.75332905	      1.33291179	     -3.45199611	    -15.13610743	     23.54210644	     -4.79156795	    -13.34096848	      0.77592106	     -2.04968476
      0.11000000	     -0.65343716	     -1.41748156	    -10.00179796	     -0.78409123	      0.88698506	     -0.43073009	     27.58483624	     -0.96356314	     -6.51685554	    -31.22550106	     16.42851450	     -6.77598174	     -7.09115186	      1.12333859	     -3.34176151	    -15.23877544	     23.79247976	     -4.66696201	    -13.46650952	      0.94679687	     -2.02799674
      0.12000000	     -0.66654686	     -1.55040572	     -9.89281582	     -0.77906034	      0.88589653	     -0.42923085	     27.62624275	     -0.85154419	     -6.87948839	    -29.80186568	     16.30520289	     -6.39005839	     -7.37201298	      0.90709161	     -3.23147917	    -15.43356712	     24.05503451	     -4.56462556	    -13.58050074	      1.10499746	     -2.01190169
      0.13000000	     -0.65884174	     -1.68761624	     -9.78304101	     -0.77385021	      0.88480365	     -0.42764175	     27.64099129	     -0.74123786	     -7.23255606	    -28.44506067	     16.21929782	     -5.97684884	     -7.69955513	      0.68941402	     -3.09364943	    -15.60763540	     24.27800764	     -4.43331383	    -13.70725180	      1.26648257	     -2.00467797
      0.14000000	     -0.64005120	     -1.81908519	     -9.67561635	     -0.76846478	      0.88368992	     -0.42593297	     27.65087031	     -0.63928811	     -7.57574953	    -27.17633401	     16.16171172	     -5.55014923	     -8.06025480	      0.47605589	     -2.94500181	    -15.76371377	     24.45780690	     -4.27277798	    -13.83398636	      1.41497675	     -2.00708620
      0.15000000	     -0.64600815	     -1.94930330	     -9.54685058	     -0.76299822	      0.88250084	     -0.42415487	     27.69873054	     -0.54258460	     -7.91297296	    -26.00087857	     16.09724492	     -5.33831294	     -8.34343310	      0.24787558	     -2.78320309	    -16.02694424	     24.64739053	     -4.17146536	    -13.93754631	      1.56559747	     -2.00202302
      0.16000000	     -0.59913102	     -2.08420361	     -9.40954507	     -0.75730644	      0.88139077	     -0.42228715	     27.67428013	     -0.45596311	     -8.25437875	    -24.89456321	     16.06327780	     -5.08315980	     -8.72833230	      0.02148359	     -2.60790447	    -16.23250764	     24.77772778	     -4.02259209	    -14.08884281	      1.71518300	     -2.03603706
